{"title":"Lucy (2014) 720p WEB-DL H264 AAC Raven","uid":11386401,"size":801234795,"categoryP":"porn","categoryS":"movies","magnet":"?xt=urn:btih:bd82fc5d0566b9d3211d38c2a90e6acc25635cc2&amp;dn=Lucy+%282014%29+720p+WEB-DL+H264+AAC+Raven&amp;tr=udp%3A%2F%2Ftracker.openbittorrent.com%3A80&amp;tr=udp%3A%2F%2Fopen.demonii.com%3A1337&amp;tr=udp%3A%2F%2Ftracker.coppersurfer.tk%3A6969&amp;tr=udp%3A%2F%2Fexodus.desync.com%3A6969","seeders":0,"leechers":1,"uploader":"Raven1969","files":-1,"time":1415270114,"description":" _____________________________________________________________\n|$***********************************************************$|\n|* &quot;?$$$$$$N    &quot;$$$$$$&quot; &quot;$$$$&quot;  &quot;$$$&quot;$$$$$$$$$$&quot;&quot;$$$  &quot;$$$&quot; *|\n|* &quot;$$$&quot;&quot;&quot;$$k. &quot;$$$&quot;&quot;$$$&quot; &quot;$$$   .$$&quot;&quot;$$$&quot;&quot;&quot;&quot;$$$&quot;&quot;$$$_ '$$$&quot; *|\n|* &quot;$$$  &quot;$$F'&quot;$$&quot;    *$$&quot;&quot;$$$   .$$&quot;&quot;$$$&quot;       &quot;$$$$ '$$$&quot; *|\n|* &quot;$$$__&quot;$$&quot; &quot;$$&quot;____*$$&quot;&quot;$$$   .$$&quot;&quot;$$$$__*$$$&quot;&quot;$$$$$_$$$&quot; *|\n|* &quot;$$$**#$'  &quot;$$$$$$$$$$&quot;&quot;$$$   _$$&quot;&quot;$$$$$$$$$$&quot;&quot;$$$$$$$$$&quot; *| \n|* &quot;$$$&quot;&quot;&quot;$$. &quot;$$$&quot;&quot;&quot;&quot;$$$&quot;&quot;$$$_ .$$$&quot;&quot;$$$        &quot;$$$ '$$$$&quot; *|\n|* &quot;$$$   &quot;$$.&quot;$$&quot;    &quot;$$&quot;&quot;$$$$_.$$$&quot;&quot;$$$&quot;___*$$&quot;&quot;$$$  '$$$&quot; *|\n|* &quot;$$$    $$$&quot;$$$    $$$&quot;  &quot;$$$$$&quot;  &quot;$$$$$$$$$$&quot;&quot;$$$   $$$&quot; *|\n|* &quot;&quot;&quot;&quot;    &quot;&quot;&quot;&quot;&quot;&quot;&quot;    &quot;&quot;&quot;&quot;    &quot;&quot;&quot;    &quot;&quot;&quot;&quot;&quot;&quot;&quot;&quot;&quot;&quot;&quot;  &quot;&quot;&quot;   &quot;&quot;&quot;&quot; *|\n|$*************************(PRESENTS)************************$|\n\n\n\n          Lucy(2014)720p.WEB-DL.H264.AAC.Raven.mp4\n\nEncoding Method: 2 Pass x264\n\n\n\nIMDB Rating:  6.5\n\nScreen image:\n &lt;a href=&quot;\nhttp://i.imgur.com/AmbXW3J.jpg&quot; rel=&quot;nofollow&quot; target=&quot;_NEW&quot;&gt;\nhttp://i.imgur.com/AmbXW3J.jpg&lt;/a&gt;\n\n\nA woman, accidentally caught in a dark deal, turns the tables on her captors and transforms into a merciless warrior evolved beyond human logic.\n\nIt was supposed to be a simple job. All Lucy had to do was deliver a mysterious briefcase to Mr. Jang. But immediately Lucy is caught up in a nightmarish deal where she is captured and turned into a drug mule for a new and powerful synthetic drug. When the bag she is carrying inside of her stomach leaks, Lucy's body undergoes unimaginable changes that unlocks her mind's full potential 100%. With her new-found powers, Lucy turns into a merciless warrior intent on getting back at her captors. She receives invaluable help from Professor Norman, the leading authority on the human mind, and French police captain Pierre Del Rio.\n\n\n\n\n\nGeneral\nFormat                                   : MPEG-4\nFormat profile                           : Base Media\nCodec ID                                 : isom\nFile size                                : 764 MiB\nDuration                                 : 1h 29mn\nOverall bit rate mode                    : Variable\nOverall bit rate                         : 1 195 Kbps\nEncoded date                             : UTC 2014-11-06 09:21:05\nTagged date                              : UTC 2014-11-06 09:21:05\n\nVideo\nID                                       : 1\nFormat                                   : AVC\nFormat/Info                              : Advanced Video Codec\nFormat profile                           : &lt;a class=&quot;__cf_email__&quot; href=&quot;/cdn-cgi/l/email-protection&quot; data-cfemail=&quot;eca4858b84aca0d8c2dc&quot;&gt;[email&amp;#160;protected]&lt;/a&gt;&lt;script cf-hash='f9e31' type=&quot;text/javascript&quot;&gt;\n/* &lt;![CDATA[ */!function(){try{var t=&quot;currentScript&quot;in document?document.currentScript:function(){for(var t=document.getElementsByTagName(&quot;script&quot;),e=t.length;e--;)if(t[e].getAttribute(&quot;cf-hash&quot;))return t[e]}();if(t&amp;&amp;t.previousSibling){var e,r,n,i,c=t.previousSibling,a=c.getAttribute(&quot;data-cfemail&quot;);if(a){for(e=&quot;&quot;,r=parseInt(a.substr(0,2),16),n=2;a.length-n;n+=2)i=parseInt(a.substr(n,2),16)^r,e+=String.fromCharCode(i);e=document.createTextNode(e),c.parentNode.replaceChild(e,c)}}}catch(u){}}();/* ]]&gt; */&lt;/script&gt;\nFormat settings, CABAC                   : Yes\nFormat settings, ReFrames                : 8 frames\nCodec ID                                 : avc1\nCodec ID/Info                            : Advanced Video Coding\nDuration                                 : 1h 29mn\nBit rate                                 : 1 100 Kbps\nMaximum bit rate                         : 8 270 Kbps\nWidth                                    : 1 280 pixels\nHeight                                   : 534 pixels\nDisplay aspect ratio                     : 2.40:1\nOriginal display aspect ratio            : 2.40:1\nFrame rate mode                          : Constant\nFrame rate                               : 23.976 fps\nColor space                              : YUV\nChroma subsampling                       : 4:2:0\nBit depth                                : 8 bits\nScan type                                : Progressive\nBits/(Pixel*Frame)                       : 0.067\nStream size                              : 703 MiB (92%)\nWriting library                          : x264 core 142 \nEncoded date                             : UTC 2014-11-06 09:21:05\nTagged date                              : UTC 2014-11-06 09:21:29\n\nAudio\nID                                       : 2\nFormat                                   : AAC\nFormat/Info                              : Advanced Audio Codec\nFormat profile                           : LC\nCodec ID                                 : 40\nDuration                                 : 1h 29mn\nBit rate mode                            : Variable\nBit rate                                 : 92.1 Kbps\nMaximum bit rate                         : 140 Kbps\nChannel(s)                               : 2 channels\nChannel positions                        : Front: L R\nSampling rate                            : 44.1 KHz\nCompression mode                         : Lossy\nStream size                              : 58.8 MiB (8%)\nEncoded date                             : UTC 2014-11-06 08:40:27\nTagged date                              : UTC 2014-11-06 09:21:29\n\nPLEASE  SEED FOR AS LONG AS POSSIBLE TO KEEP THE TORRENT ALIVE :-)","torrent":{"xt":"urn:btih:bd82fc5d0566b9d3211d38c2a90e6acc25635cc2","amp;dn":"Lucy+%282014%29+720p+WEB-DL+H264+AAC+Raven","amp;tr":["udp%3A%2F%2Ftracker.openbittorrent.com%3A80","udp%3A%2F%2Fopen.demonii.com%3A1337","udp%3A%2F%2Ftracker.coppersurfer.tk%3A6969","udp%3A%2F%2Fexodus.desync.com%3A6969"],"infoHash":"bd82fc5d0566b9d3211d38c2a90e6acc25635cc2","infoHashBuffer":{"type":"Buffer","data":[189,130,252,93,5,102,185,211,33,29,56,194,169,14,106,204,37,99,92,194]},"announce":[],"urlList":[]}}